<svg width="1711" height="1000" viewBox="0 0 1711 1000" fill="none" xmlns="http://www.w3.org/2000/svg">
<rect x="275" y="553.528" width="52.3679" height="52.3679" fill="#6A3677"/>
<rect x="484.472" y="292.736" width="52.3679" height="52.3679" fill="#80448C"/>
<rect x="484.472" y="240.368" width="52.3679" height="52.3679" fill="#65AD47"/>
<rect x="379.736" y="240.368" width="52.3679" height="52.3679" fill="#65AD47"/>
<rect x="432.104" y="240.368" width="52.3679" height="52.3679" fill="#80448C"/>
<rect x="327.368" y="240.368" width="52.3679" height="52.3679" fill="#65AD47"/>
<rect x="275" y="292.736" width="52.3679" height="52.3679" fill="#65AD47"/>
<rect x="327.368" y="292.736" width="52.3679" height="52.3679" fill="#65AD47"/>
<rect x="327.368" y="345.104" width="52.3679" height="52.3679" fill="#65AD47"/>
<rect x="379.736" y="292.736" width="52.3679" height="52.3679" fill="#65AD47"/>
<rect x="379.736" y="188" width="52.3679" height="52.3679" fill="#65AD47"/>
<rect x="432.104" y="240.368" width="52.3679" height="52.3679" fill="#65AD47"/>
<rect x="536.84" y="188" width="52.3679" height="52.3679" fill="#65AD47"/>
<rect x="432.104" y="345.104" width="52.3679" height="52.3679" fill="#80448C"/>
<rect x="379.736" y="397.472" width="52.3679" height="52.3679" fill="#80448C"/>
<rect x="432.104" y="449.84" width="52.3679" height="52.3679" fill="#80448C"/>
<path d="M379.736 449.84H432.104V502.208H379.736V449.84Z" fill="#80448C"/>
<rect x="536.84" y="449.84" width="52.3679" height="52.3679" fill="#80448C"/>
<rect x="536.84" y="397.472" width="52.3679" height="52.3679" fill="#80448C"/>
<rect x="484.472" y="397.472" width="52.3679" height="52.3679" fill="#80448C"/>
<rect x="432.104" y="397.472" width="52.3679" height="52.3679" fill="#80448C"/>
<rect x="484.472" y="345.104" width="52.3679" height="52.3679" fill="#80448C"/>
<rect x="589.208" y="449.84" width="52.3679" height="52.3679" fill="#80448C"/>
<rect x="484.472" y="449.84" width="52.3679" height="52.3679" fill="#80448C"/>
<rect width="52.3679" height="52.3679" transform="matrix(-1 0 0 1 589.208 345.104)" fill="#80448C"/>
<rect width="52.3679" height="52.3679" transform="matrix(-1 0 0 1 641.576 397.472)" fill="#80448C"/>
<rect x="641.576" y="449.84" width="52.3679" height="52.3679" fill="#80448C"/>
<rect x="327.368" y="449.84" width="52.3679" height="52.3679" fill="#80448C"/>
<path d="M379.736 449.84H432.104V502.208H379.736V449.84Z" fill="#80448C"/>
<rect x="484.472" y="449.84" width="52.3679" height="52.3679" fill="#80448C"/>
<rect x="641.576" y="449.84" width="52.3679" height="52.3679" fill="#80448C"/>
<rect x="327.368" y="449.84" width="52.3679" height="52.3679" fill="#80448C"/>
<rect x="536.84" y="449.84" width="52.3679" height="52.3679" fill="#80448C"/>
<rect x="589.208" y="449.84" width="52.3679" height="52.3679" fill="#80448C"/>
<path d="M379.736 449.84H432.104V502.208H379.736V449.84Z" fill="#80448C"/>
<rect x="484.472" y="449.84" width="52.3679" height="52.3679" fill="#80448C"/>
<rect x="641.576" y="449.84" width="52.3679" height="52.3679" fill="#80448C"/>
<rect x="327.368" y="449.84" width="52.3679" height="52.3679" fill="#80448C"/>
<rect x="432.104" y="658.264" width="52.3679" height="52.3679" fill="#6A3677"/>
<path d="M379.736 658.264H432.104V710.632H379.736V658.264Z" fill="#80448C"/>
<rect x="536.84" y="658.264" width="52.3679" height="52.3679" fill="#80448C"/>
<rect x="589.208" y="658.264" width="52.3679" height="52.3679" fill="#80448C"/>
<rect x="484.472" y="658.264" width="52.3679" height="52.3679" fill="#80448C"/>
<rect x="641.576" y="658.264" width="52.3679" height="52.3679" fill="#80448C"/>
<rect x="327.368" y="658.264" width="52.3679" height="52.3679" fill="#80448C"/>
<path d="M379.736 658.264H432.104V710.632H379.736V658.264Z" fill="#80448C"/>
<rect x="484.472" y="658.264" width="52.3679" height="52.3679" fill="#80448C"/>
<rect x="641.576" y="658.264" width="52.3679" height="52.3679" fill="#80448C"/>
<rect x="327.368" y="658.264" width="52.3679" height="52.3679" fill="#80448C"/>
<rect x="536.84" y="658.264" width="52.3679" height="52.3679" fill="#80448C"/>
<rect x="589.208" y="658.264" width="52.3679" height="52.3679" fill="#80448C"/>
<path d="M379.736 658.264H432.104V710.632H379.736V658.264Z" fill="#80448C"/>
<rect x="484.472" y="658.264" width="52.3679" height="52.3679" fill="#80448C"/>
<rect x="641.576" y="658.264" width="52.3679" height="52.3679" fill="#80448C"/>
<rect x="327.368" y="658.264" width="52.3679" height="52.3679" fill="#80448C"/>
<rect x="432.104" y="606.944" width="52.3679" height="52.3679" fill="#80448C"/>
<path d="M379.736 606.944H432.104V659.312H379.736V606.944Z" fill="#80448C"/>
<rect x="536.84" y="606.944" width="52.3679" height="52.3679" fill="#80448C"/>
<rect x="589.208" y="606.944" width="52.3679" height="52.3679" fill="#80448C"/>
<rect x="484.472" y="606.944" width="52.3679" height="52.3679" fill="#80448C"/>
<rect x="641.576" y="606.944" width="52.3679" height="52.3679" fill="#80448C"/>
<rect x="327.368" y="606.944" width="52.3679" height="52.3679" fill="#80448C"/>
<path d="M379.736 606.944H432.104V659.312H379.736V606.944Z" fill="#80448C"/>
<rect x="484.472" y="606.944" width="52.3679" height="52.3679" fill="#80448C"/>
<rect x="641.576" y="606.944" width="52.3679" height="52.3679" fill="#80448C"/>
<rect x="327.368" y="606.944" width="52.3679" height="52.3679" fill="#80448C"/>
<rect x="536.84" y="606.944" width="52.3679" height="52.3679" fill="#80448C"/>
<rect x="589.208" y="606.944" width="52.3679" height="52.3679" fill="#80448C"/>
<path d="M379.736 606.944H432.104V659.312H379.736V606.944Z" fill="#6A3677"/>
<rect x="484.472" y="606.944" width="52.3679" height="52.3679" fill="#80448C"/>
<rect x="641.576" y="606.944" width="52.3679" height="52.3679" fill="#80448C"/>
<rect x="327.368" y="606.944" width="52.3679" height="52.3679" fill="#80448C"/>
<rect x="432.104" y="554.576" width="52.3679" height="52.3679" fill="#80448C"/>
<path d="M379.736 554.576H432.104V606.944H379.736V554.576Z" fill="#80448C"/>
<rect x="536.84" y="554.576" width="52.3679" height="52.3679" fill="#80448C"/>
<rect x="589.208" y="554.576" width="52.3679" height="52.3679" fill="#80448C"/>
<rect x="484.472" y="554.576" width="52.3679" height="52.3679" fill="#80448C"/>
<rect x="641.576" y="554.576" width="52.3679" height="52.3679" fill="#80448C"/>
<rect x="327.368" y="554.576" width="52.3679" height="52.3679" fill="#80448C"/>
<path d="M379.736 554.576H432.104V606.944H379.736V554.576Z" fill="#80448C"/>
<rect x="484.472" y="554.576" width="52.3679" height="52.3679" fill="#80448C"/>
<rect x="641.576" y="554.576" width="52.3679" height="52.3679" fill="#80448C"/>
<rect x="327.368" y="554.576" width="52.3679" height="52.3679" fill="#80448C"/>
<rect x="536.84" y="554.576" width="52.3679" height="52.3679" fill="#80448C"/>
<rect x="589.208" y="554.576" width="52.3679" height="52.3679" fill="#80448C"/>
<path d="M379.736 554.576H432.104V606.944H379.736V554.576Z" fill="#6A3677"/>
<rect x="484.472" y="554.576" width="52.3679" height="52.3679" fill="#80448C"/>
<rect x="641.576" y="554.576" width="52.3679" height="52.3679" fill="#80448C"/>
<rect x="327.368" y="554.576" width="52.3679" height="52.3679" fill="#80448C"/>
<rect x="432.104" y="502.208" width="52.3679" height="52.3679" fill="#80448C"/>
<path d="M379.736 502.208H432.104V554.576H379.736V502.208Z" fill="#80448C"/>
<rect x="536.84" y="502.208" width="52.3679" height="52.3679" fill="#80448C"/>
<rect x="589.208" y="502.208" width="52.3679" height="52.3679" fill="#80448C"/>
<rect x="484.472" y="502.208" width="52.3679" height="52.3679" fill="#80448C"/>
<rect x="641.576" y="502.208" width="52.3679" height="52.3679" fill="#80448C"/>
<rect x="327.368" y="502.208" width="52.3679" height="52.3679" fill="#80448C"/>
<path d="M379.736 502.208H432.104V554.576H379.736V502.208Z" fill="#80448C"/>
<rect x="484.472" y="502.208" width="52.3679" height="52.3679" fill="#80448C"/>
<rect x="641.576" y="502.208" width="52.3679" height="52.3679" fill="#80448C"/>
<rect x="327.368" y="502.208" width="52.3679" height="52.3679" fill="#80448C"/>
<rect x="536.84" y="502.208" width="52.3679" height="52.3679" fill="#80448C"/>
<rect x="589.208" y="502.208" width="52.3679" height="52.3679" fill="#80448C"/>
<path d="M379.736 502.208H432.104V554.576H379.736V502.208Z" fill="#6A3677"/>
<rect x="484.472" y="502.208" width="52.3679" height="52.3679" fill="#80448C"/>
<rect x="641.576" y="502.208" width="52.3679" height="52.3679" fill="#80448C"/>
<rect x="327.368" y="502.208" width="52.3679" height="52.3679" fill="#80448C"/>
<rect x="693.944" y="501.16" width="52.3679" height="52.3679" fill="#80448C"/>
<rect x="693.944" y="553.528" width="52.3679" height="52.3679" fill="#80448C"/>
<rect x="693.944" y="605.896" width="52.3679" height="52.3679" fill="#80448C"/>
<rect x="641.576" y="658.264" width="52.3679" height="52.3679" fill="#80448C"/>
<rect x="589.208" y="710.632" width="52.3679" height="52.3679" fill="#6A3677"/>
<rect x="536.84" y="710.632" width="52.3679" height="52.3679" fill="#6A3677"/>
<rect x="484.472" y="710.632" width="52.3679" height="52.3679" fill="#6A3677"/>
<rect x="432.104" y="710.632" width="52.3679" height="52.3679" fill="#6A3677"/>
<rect x="379.736" y="710.632" width="52.3679" height="52.3679" fill="#6A3677"/>
<rect x="327.368" y="658.264" width="52.3679" height="52.3679" fill="#6A3677"/>
<rect x="275" y="605.896" width="52.3679" height="52.3679" fill="#6A3677"/>
<rect x="275" y="502.208" width="52.3679" height="52.3679" fill="#6A3677"/>
<path d="M993.161 433.191L950.192 634.852C942.543 670.984 926.429 700.525 901.853 723.475C877.276 746.424 851.966 757.898 825.925 757.898C811.602 757.898 801.104 755.132 794.431 749.598C787.595 744.227 784.177 737.391 784.177 729.09C784.177 722.091 786.293 715.906 790.524 710.535C794.756 705.164 800.86 702.479 808.835 702.479C813.881 702.479 818.356 703.618 822.263 705.896C826.006 708.175 829.343 711.023 832.272 714.441C834.551 717.208 837.155 720.952 840.085 725.672C842.852 730.392 845.293 734.461 847.409 737.879C859.942 736.902 870.603 728.439 879.392 712.488C888.343 696.538 896.075 673.751 902.585 644.129L947.507 433.191H899.899L905.026 410.975H952.146L955.563 394.373C959.47 375.493 965.655 358.484 974.118 343.348C982.582 328.211 992.185 315.353 1002.93 304.773C1013.51 294.357 1025.47 286.219 1038.82 280.359C1052.32 274.337 1065.26 271.326 1077.63 271.326C1091.96 271.326 1102.45 274.093 1109.13 279.627C1115.96 284.998 1119.38 291.834 1119.38 300.135C1119.38 307.133 1117.35 313.318 1113.28 318.689C1109.37 324.061 1103.19 326.746 1094.72 326.746C1089.68 326.746 1085.28 325.688 1081.54 323.572C1077.8 321.294 1074.46 318.364 1071.53 314.783C1068.28 310.714 1065.67 306.889 1063.72 303.309C1061.76 299.728 1059.32 295.74 1056.39 291.346C1045.16 291.834 1035.23 299.24 1026.61 313.562C1017.98 327.885 1010.17 351.73 1003.17 385.096L997.8 410.975H1059.08L1053.95 433.191H993.161ZM1171.38 622.889L1167.72 638.514C1152.75 644.536 1140.78 648.686 1131.83 650.965C1122.88 653.406 1115.23 654.627 1108.88 654.627C1095.86 654.627 1086.1 651.29 1079.59 644.617C1073.08 637.781 1069.82 629.399 1069.82 619.471C1069.82 615.727 1070.15 611.821 1070.8 607.752C1071.45 603.683 1072.51 598.556 1073.97 592.371L1099.85 488.611C1101.15 482.915 1102.37 476.811 1103.51 470.301C1104.81 463.79 1105.47 458.257 1105.47 453.699C1105.47 444.585 1103.92 438.562 1100.83 435.633C1097.9 432.54 1091.79 430.994 1082.52 430.994C1078.94 430.994 1074.13 431.564 1068.11 432.703C1062.25 433.842 1057.78 434.819 1054.68 435.633L1058.35 420.008C1071.04 414.311 1082.44 410.079 1092.53 407.312C1102.62 404.546 1110.59 403.162 1116.45 403.162C1129.8 403.162 1139.48 406.336 1145.5 412.684C1151.53 419.031 1154.54 427.576 1154.54 438.318C1154.54 441.248 1154.21 445.236 1153.56 450.281C1152.91 455.327 1151.93 460.372 1150.63 465.418L1124.51 569.178C1122.88 575.525 1121.42 581.792 1120.11 587.977C1118.97 593.999 1118.41 598.963 1118.41 602.869C1118.41 612.146 1120.44 618.494 1124.51 621.912C1128.74 625.33 1135.5 627.039 1144.77 627.039C1147.86 627.039 1152.26 626.632 1157.96 625.818C1163.82 625.005 1168.29 624.028 1171.38 622.889ZM1188.72 310.877C1188.72 320.154 1185.71 328.292 1179.68 335.291C1173.66 342.127 1166.18 345.545 1157.22 345.545C1148.92 345.545 1141.76 342.29 1135.74 335.779C1129.72 329.106 1126.71 321.538 1126.71 313.074C1126.71 304.122 1129.72 296.31 1135.74 289.637C1141.76 282.964 1148.92 279.627 1157.22 279.627C1166.5 279.627 1174.07 282.801 1179.93 289.148C1185.79 295.333 1188.72 302.576 1188.72 310.877ZM1358.88 616.541L1357.17 616.053C1353.92 618.657 1349.28 622.319 1343.26 627.039C1337.4 631.759 1331.21 635.91 1324.7 639.49C1317.22 643.885 1309.65 647.465 1302 650.232C1294.35 652.999 1285.89 654.383 1276.61 654.383C1253.01 654.383 1234.78 646.082 1221.92 629.48C1209.23 612.716 1202.88 589.686 1202.88 560.389C1202.88 540.206 1206.54 520.594 1213.86 501.551C1221.35 482.508 1231.52 465.581 1244.38 450.77C1256.75 436.447 1271.56 424.972 1288.82 416.346C1306.07 407.557 1324.13 403.162 1343.01 403.162C1354.73 403.162 1365.8 404.708 1376.22 407.801C1386.63 410.73 1395.02 414.23 1401.36 418.299L1446.04 406.824L1448.97 410.486L1407.96 602.869C1401.77 632.003 1393.8 656.58 1384.03 676.6C1374.43 696.782 1363.28 712.732 1350.58 724.451C1337.56 736.495 1323.16 745.04 1307.37 750.086C1291.75 755.294 1274 757.898 1254.15 757.898C1240.64 757.898 1229.57 756.84 1220.94 754.725C1212.48 752.609 1205.81 749.842 1200.92 746.424C1196.04 743.006 1192.71 739.1 1190.92 734.705C1189.29 730.473 1188.47 726.404 1188.47 722.498C1188.47 715.174 1190.67 708.989 1195.07 703.943C1199.46 699.061 1205.48 696.619 1213.13 696.619C1219.15 696.619 1224.28 698.328 1228.51 701.746C1232.74 705.327 1236.16 709.152 1238.77 713.221C1241.53 717.452 1244.22 722.498 1246.82 728.357C1249.43 734.217 1251.38 738.611 1252.68 741.541H1260.01C1268.96 741.541 1278.56 739.507 1288.82 735.438C1299.07 731.368 1308.43 724.777 1316.89 715.662C1325.52 706.222 1333.57 693.527 1341.06 677.576C1348.55 661.788 1354.49 641.443 1358.88 616.541ZM1391.6 460.535C1391.6 455.978 1390.87 451.339 1389.4 446.619C1388.1 441.736 1385.58 437.26 1381.83 433.191C1378.25 429.285 1373.69 426.193 1368.16 423.914C1362.63 421.635 1355.55 420.496 1346.92 420.496C1334.39 420.496 1322.51 424.321 1311.28 431.971C1300.21 439.458 1290.2 449.793 1281.25 462.977C1272.95 475.346 1266.19 490.32 1260.98 507.898C1255.78 525.477 1253.17 543.136 1253.17 560.877C1253.17 570.48 1253.82 579.35 1255.12 587.488C1256.59 595.464 1259.03 602.462 1262.45 608.484C1265.87 614.507 1270.34 619.227 1275.88 622.645C1281.57 625.9 1288.9 627.527 1297.85 627.527C1309.24 627.527 1320.55 624.272 1331.78 617.762C1343.01 611.089 1353.68 602.625 1363.77 592.371L1391.6 460.535Z" fill="#F5F5F5"/>
</svg>
