<svg xmlns="http://www.w3.org/2000/svg" viewBox="0 0 460 240">
  <!-- Pixel art fig fruit -->
  <g transform="translate(35, 12)">
    <rect x="36" y="0" width="18" height="18" fill="#76ab55"/>
    <rect x="90" y="0" width="18" height="18" fill="#76ab55"/>
    <rect x="18" y="18" width="18" height="18" fill="#76ab55"/>
    <rect x="36" y="18" width="18" height="18" fill="#76ab55"/>
    <rect x="54" y="18" width="18" height="18" fill="#76ab55"/>
    <rect x="72" y="18" width="18" height="18" fill="#76ab55"/>
    <rect x="0" y="36" width="18" height="18" fill="#76ab55"/>
    <rect x="18" y="36" width="18" height="18" fill="#76ab55"/>
    <rect x="36" y="36" width="18" height="18" fill="#76ab55"/>
    <rect x="72" y="36" width="18" height="18" fill="#784788"/>
    <rect x="18" y="54" width="18" height="18" fill="#76ab55"/>
    <rect x="54" y="54" width="18" height="18" fill="#784788"/>
    <rect x="72" y="54" width="18" height="18" fill="#784788"/>
    <rect x="90" y="54" width="18" height="18" fill="#784788"/>
    <rect x="36" y="72" width="18" height="18" fill="#784788"/>
    <rect x="54" y="72" width="18" height="18" fill="#784788"/>
    <rect x="72" y="72" width="18" height="18" fill="#784788"/>
    <rect x="90" y="72" width="18" height="18" fill="#784788"/>
    <rect x="108" y="72" width="18" height="18" fill="#784788"/>
    <rect x="18" y="90" width="18" height="18" fill="#784788"/>
    <rect x="36" y="90" width="18" height="18" fill="#784788"/>
    <rect x="54" y="90" width="18" height="18" fill="#784788"/>
    <rect x="72" y="90" width="18" height="18" fill="#784788"/>
    <rect x="90" y="90" width="18" height="18" fill="#784788"/>
    <rect x="108" y="90" width="18" height="18" fill="#784788"/>
    <rect x="126" y="90" width="18" height="18" fill="#784788"/>
    <rect x="0" y="108" width="18" height="18" fill="#633974"/>
    <rect x="18" y="108" width="18" height="18" fill="#784788"/>
    <rect x="36" y="108" width="18" height="18" fill="#633974"/>
    <rect x="54" y="108" width="18" height="18" fill="#784788"/>
    <rect x="72" y="108" width="18" height="18" fill="#784788"/>
    <rect x="90" y="108" width="18" height="18" fill="#784788"/>
    <rect x="108" y="108" width="18" height="18" fill="#784788"/>
    <rect x="126" y="108" width="18" height="18" fill="#784788"/>
    <rect x="144" y="108" width="18" height="18" fill="#784788"/>
    <rect x="0" y="126" width="18" height="18" fill="#633974"/>
    <rect x="18" y="126" width="18" height="18" fill="#784788"/>
    <rect x="36" y="126" width="18" height="18" fill="#633974"/>
    <rect x="54" y="126" width="18" height="18" fill="#784788"/>
    <rect x="72" y="126" width="18" height="18" fill="#784788"/>
    <rect x="90" y="126" width="18" height="18" fill="#784788"/>
    <rect x="108" y="126" width="18" height="18" fill="#784788"/>
    <rect x="126" y="126" width="18" height="18" fill="#784788"/>
    <rect x="144" y="126" width="18" height="18" fill="#784788"/>
    <rect x="0" y="144" width="18" height="18" fill="#633974"/>
    <rect x="18" y="144" width="18" height="18" fill="#784788"/>
    <rect x="36" y="144" width="18" height="18" fill="#633974"/>
    <rect x="54" y="144" width="18" height="18" fill="#784788"/>
    <rect x="72" y="144" width="18" height="18" fill="#784788"/>
    <rect x="90" y="144" width="18" height="18" fill="#784788"/>
    <rect x="108" y="144" width="18" height="18" fill="#784788"/>
    <rect x="126" y="144" width="18" height="18" fill="#784788"/>
    <rect x="144" y="144" width="18" height="18" fill="#784788"/>
    <rect x="18" y="162" width="18" height="18" fill="#633974"/>
    <rect x="36" y="162" width="18" height="18" fill="#784788"/>
    <rect x="54" y="162" width="18" height="18" fill="#633974"/>
    <rect x="72" y="162" width="18" height="18" fill="#784788"/>
    <rect x="90" y="162" width="18" height="18" fill="#784788"/>
    <rect x="108" y="162" width="18" height="18" fill="#784788"/>
    <rect x="126" y="162" width="18" height="18" fill="#784788"/>
    <rect x="36" y="180" width="18" height="18" fill="#633974"/>
    <rect x="54" y="180" width="18" height="18" fill="#633974"/>
    <rect x="72" y="180" width="18" height="18" fill="#633974"/>
    <rect x="90" y="180" width="18" height="18" fill="#633974"/>
    <rect x="108" y="180" width="18" height="18" fill="#633974"/>
    <rect x="72" y="198" width="18" height="18" fill="#633974"/>
  </g>
  <!-- "fig" text - dark color for light backgrounds -->
  <text x="240" y="175" fill="#1a1a1a" font-family="Georgia, 'Times New Roman', serif" font-style="italic" font-size="150" font-weight="400">fig</text>
</svg>
